<?xml version="1.0" encoding="UTF-8"?>
<svg id="Layer_1" data-name="Layer 1" xmlns="http://www.w3.org/2000/svg" viewBox="0 0 480 480">
  <defs>
    <style>
      .cls-1 {
        fill: #d4e2ff;
      }

      .cls-2 {
        fill: #1b1464;
      }

      .cls-3 {
        fill: none;
        stroke: #1b1464;
        stroke-miterlimit: 10;
        stroke-width: 2px;
      }
    </style>
  </defs>
  <g>
    <path class="cls-1" d="m13.7,1.5h452.59c6.74,0,12.2,5.47,12.2,12.2v452.59c0,6.74-5.47,12.2-12.2,12.2H13.7c-6.74,0-12.2-5.47-12.2-12.2V13.7C1.5,6.97,6.97,1.5,13.7,1.5Z"/>
    <path class="cls-2" d="m466.3,3c5.9,0,10.7,4.8,10.7,10.7v452.59c0,5.9-4.8,10.7-10.7,10.7H13.7c-5.9,0-10.7-4.8-10.7-10.7V13.7C3,7.8,7.8,3,13.7,3h452.59m0-3H13.7C6.14,0,0,6.14,0,13.7v452.59c0,7.57,6.14,13.7,13.7,13.7h452.59c7.57,0,13.7-6.14,13.7-13.7V13.7c0-7.57-6.14-13.7-13.7-13.7h0Z"/>
  </g>
  <rect class="cls-3" x="1.5" y="170" width="477" height="140"/>
  <rect class="cls-3" x="170" y="1.5" width="140" height="477"/>
  <rect class="cls-3" x="1" y="30" width="477" height="420"/>
  <rect class="cls-3" x="30" y="2" width="420" height="477"/>
  <g>
    <circle class="cls-2" cx="99" cy="101" r="8.5"/>
    <path class="cls-2" d="m99,94c3.86,0,7,3.14,7,7s-3.14,7-7,7-7-3.14-7-7,3.14-7,7-7m0-3c-5.52,0-10,4.48-10,10s4.48,10,10,10,10-4.48,10-10-4.48-10-10-10h0Z"/>
  </g>
  <path class="cls-2" d="m99,63c20.4,0,37,16.6,37,37s-16.6,37-37,37-37-16.6-37-37,16.6-37,37-37m0-3c-22.09,0-40,17.91-40,40s17.91,40,40,40,40-17.91,40-40-17.91-40-40-40h0Z"/>
  <line class="cls-3" x1="180" y1="180" x2="300" y2="300"/>
  <line class="cls-3" x1="300" y1="180" x2="180" y2="300"/>
  <line class="cls-3" x1="440" y1="180" x2="320" y2="300"/>
  <line class="cls-3" x1="320" y1="180" x2="440" y2="300"/>
  <path class="cls-2" d="m99,203c20.4,0,37,16.6,37,37s-16.6,37-37,37-37-16.6-37-37,16.6-37,37-37m0-3c-22.09,0-40,17.91-40,40s17.91,40,40,40,40-17.91,40-40-17.91-40-40-40h0Z"/>
  <g>
    <circle class="cls-2" cx="99" cy="240" r="8.5"/>
    <path class="cls-2" d="m99,233c3.86,0,7,3.14,7,7s-3.14,7-7,7-7-3.14-7-7,3.14-7,7-7m0-3c-5.52,0-10,4.48-10,10s4.48,10,10,10,10-4.48,10-10-4.48-10-10-10h0Z"/>
  </g>
  <g>
    <circle class="cls-2" cx="380" cy="380" r="8.5"/>
    <path class="cls-2" d="m380,373c3.86,0,7,3.14,7,7s-3.14,7-7,7-7-3.14-7-7,3.14-7,7-7m0-3c-5.52,0-10,4.48-10,10s4.48,10,10,10,10-4.48,10-10-4.48-10-10-10h0Z"/>
  </g>
  <path class="cls-2" d="m380,343c20.4,0,37,16.6,37,37s-16.6,37-37,37-37-16.6-37-37,16.6-37,37-37m0-3c-22.09,0-40,17.91-40,40s17.91,40,40,40,40-17.91,40-40-17.91-40-40-40h0Z"/>
</svg>