<?xml version="1.0" encoding="UTF-8"?>
<svg id="Layer_1" data-name="Layer 1" xmlns="http://www.w3.org/2000/svg" viewBox="0 0 512 512">
  <defs>
    <style>
      .cls-1 {
        fill: #d4e2ff;
      }

      .cls-2 {
        fill: #1b1464;
      }

      .cls-3 {
        fill: none;
        stroke: #1b1464;
        stroke-miterlimit: 10;
        stroke-width: 2px;
      }
    </style>
  </defs>
  <rect class="cls-1" width="512" height="512"/>
  <line class="cls-3" x1="501" y1="326" x2="11" y2="326"/>
  <line class="cls-3" x1="11" y1="186" x2="501" y2="186"/>
  <line class="cls-3" x1="186" y1="501" x2="186" y2="11"/>
  <line class="cls-3" x1="326" y1="11" x2="326" y2="501"/>
  <line class="cls-3" x1="501" y1="466" x2="11" y2="466"/>
  <line class="cls-3" x1="11" y1="46" x2="501" y2="46"/>
  <line class="cls-3" x1="46" y1="501" x2="46" y2="11"/>
  <line class="cls-3" x1="466" y1="11" x2="466" y2="501"/>
  <g>
    <circle class="cls-2" cx="115" cy="117" r="8.5"/>
    <path class="cls-2" d="m115,110c3.86,0,7,3.14,7,7s-3.14,7-7,7-7-3.14-7-7,3.14-7,7-7m0-3c-5.52,0-10,4.48-10,10s4.48,10,10,10,10-4.48,10-10-4.48-10-10-10h0Z"/>
  </g>
  <path class="cls-2" d="m115,79c20.4,0,37,16.6,37,37s-16.6,37-37,37-37-16.6-37-37,16.6-37,37-37m0-3c-22.09,0-40,17.91-40,40s17.91,40,40,40,40-17.91,40-40-17.91-40-40-40h0Z"/>
  <line class="cls-3" x1="196" y1="196" x2="316" y2="316"/>
  <line class="cls-3" x1="316" y1="196" x2="196" y2="316"/>
  <line class="cls-3" x1="456" y1="196" x2="336" y2="316"/>
  <line class="cls-3" x1="336" y1="196" x2="456" y2="316"/>
  <path class="cls-2" d="m115,219c20.4,0,37,16.6,37,37s-16.6,37-37,37-37-16.6-37-37,16.6-37,37-37m0-3c-22.09,0-40,17.91-40,40s17.91,40,40,40,40-17.91,40-40-17.91-40-40-40h0Z"/>
  <g>
    <circle class="cls-2" cx="115" cy="256" r="8.5"/>
    <path class="cls-2" d="m115,249c3.86,0,7,3.14,7,7s-3.14,7-7,7-7-3.14-7-7,3.14-7,7-7m0-3c-5.52,0-10,4.48-10,10s4.48,10,10,10,10-4.48,10-10-4.48-10-10-10h0Z"/>
  </g>
  <g>
    <circle class="cls-2" cx="396" cy="396" r="8.5"/>
    <path class="cls-2" d="m396,389c3.86,0,7,3.14,7,7s-3.14,7-7,7-7-3.14-7-7,3.14-7,7-7m0-3c-5.52,0-10,4.48-10,10s4.48,10,10,10,10-4.48,10-10-4.48-10-10-10h0Z"/>
  </g>
  <path class="cls-2" d="m396,359c20.4,0,37,16.6,37,37s-16.6,37-37,37-37-16.6-37-37,16.6-37,37-37m0-3c-22.09,0-40,17.91-40,40s17.91,40,40,40,40-17.91,40-40-17.91-40-40-40h0Z"/>
</svg>